<svg xmlns="http://www.w3.org/2000/svg" width="49.652" height="49.652" viewBox="0 0 49.652 49.652"><path d="M24.825 29.796c2.739 0 4.972-2.229 4.972-4.97 0-1.082-.354-2.081-.94-2.897-.903-1.252-2.371-2.073-4.029-2.073-1.659 0-3.126.82-4.031 2.072-.588.816-.939 1.815-.94 2.897C19.854 27.566 22.085 29.796 24.825 29.796zM35.678 18.746L35.678 14.58 35.678 13.96 35.055 13.962 30.891 13.975 30.907 18.762"/><path d="M24.826,0C11.137,0,0,11.137,0,24.826c0,13.688,11.137,24.826,24.826,24.826c13.688,0,24.826-11.138,24.826-24.826 C49.652,11.137,38.516,0,24.826,0z M38.945,21.929v11.56c0,3.011-2.448,5.458-5.457,5.458H16.164 c-3.01,0-5.457-2.447-5.457-5.458v-11.56v-5.764c0-3.01,2.447-5.457,5.457-5.457h17.323c3.01,0,5.458,2.447,5.458,5.457V21.929z"/><path d="M32.549,24.826c0,4.257-3.464,7.723-7.723,7.723c-4.259,0-7.722-3.466-7.722-7.723c0-1.024,0.204-2.003,0.568-2.897 h-4.215v11.56c0,1.494,1.213,2.704,2.706,2.704h17.323c1.491,0,2.706-1.21,2.706-2.704v-11.56h-4.217 C32.342,22.823,32.549,23.802,32.549,24.826z"/></svg>