<svg xmlns="http://www.w3.org/2000/svg" width="49.654" height="49.654" viewBox="0 0 49.654 49.654"><path d="M24.827 0C11.137 0 0 11.138 0 24.827c0 13.69 11.138 24.827 24.827 24.827 13.688 0 24.826-11.138 24.826-24.827C49.653 11.137 38.517 0 24.827 0zm14.315 38.51v-.98c0-3.385-3.912-4.62-6.006-5.516-.758-.323-2.187-1.01-3.653-1.728-.495-.242-.94-.887-.997-1.438l-.162-1.604c1.122-1.045 2.133-2.5 2.304-4.122h.253c.4 0 .774-.298.833-.663l.397-2.454c.053-.524-.442-.842-.843-.842.01-.052.02-.105.025-.15.05-.294.082-.58.102-.856.025-.223.045-.454.056-.693.042-1.158-.154-2.17-.48-2.738-.33-.793-.83-1.563-1.525-2.223-1.94-1.836-4.188-2.55-6.106-1.075-1.307-.227-2.86.37-3.98 1.683-.612.717-.993 1.537-1.156 2.344-.146.503-.243 1.112-.267 1.77-.026.734.046 1.405.18 1.948-.38.024-.763.338-.763.833l.396 2.453c.06.366.434.664.832.664h.227c.36 1.754 1.29 3.194 2.322 4.198l-.156 1.55c-.056.55-.502 1.194-.998 1.44-1.418.69-2.815 1.357-3.65 1.702-1.97.812-6.007 2.13-6.007 5.517v.767c-3.287-3.54-5.315-8.266-5.315-13.467 0-10.932 8.894-19.826 19.826-19.826 10.934 0 19.827 8.894 19.827 19.826-.004 5.303-2.11 10.116-5.515 13.68z"/></svg>